<svg width="468" height="285" viewBox="0 0 468 285" fill="none" xmlns="http://www.w3.org/2000/svg">
<path d="M56.5549 285L55.7561 284.819C64.8933 244.445 87.4893 208.37 119.84 182.507C152.191 156.644 192.377 142.528 233.812 142.471C275.247 142.415 315.472 156.422 347.893 182.197C380.314 207.971 403.009 243.985 412.256 284.333L411.457 284.515C392.502 201.37 319.556 143.299 234.067 143.299C149.687 143.299 75.0361 202.893 56.5549 285Z" fill="#3F3D56"/>
<path d="M75.374 279.923C75.9278 281.607 77.0078 283.068 78.4551 284.092C79.2834 282.505 79.4834 280.665 79.0155 278.938C78.5476 277.21 77.446 275.722 75.9297 274.768C75.1966 276.383 75.0018 278.19 75.374 279.923Z" fill="#3F3D56"/>
<path d="M76.4021 279.373C77.6053 280.676 78.3577 282.331 78.5486 284.094C76.7579 284.045 75.051 283.325 73.7674 282.077C72.4838 280.828 71.7174 279.143 71.6206 277.356C73.3895 277.499 75.0656 278.206 76.4021 279.373Z" fill="#FFA100"/>
<path d="M128.472 279.923C129.026 281.607 130.106 283.068 131.554 284.092C132.382 282.505 132.582 280.665 132.114 278.938C131.646 277.21 130.544 275.722 129.028 274.768C128.295 276.383 128.1 278.19 128.472 279.923Z" fill="#3F3D56"/>
<path d="M129.501 279.373C130.704 280.676 131.456 282.331 131.647 284.094C129.857 284.045 128.15 283.325 126.866 282.077C125.582 280.828 124.816 279.143 124.719 277.356C126.488 277.499 128.164 278.206 129.501 279.373Z" fill="#FFA100"/>
<path d="M139.005 74.8306L130.598 68.1114L177.676 26.1218H297.05V63.0738L219.709 115.142L139.005 74.8306Z" fill="#3F3D56"/>
<path d="M318.815 49.6765V26.9609H302.966V32.5241L297.051 26.1218L258.38 68.1126L243.248 78.1902L219.786 249.435L255.17 284.783H337.404V69.7918L318.815 49.6765Z" fill="#CCCCCC"/>
<path d="M258.379 68.1127H130.598V284.783H258.379V68.1127Z" fill="#F2F2F2"/>
<path d="M203.736 231.875H180.197V284.782H203.736V231.875Z" fill="#CCCCCC"/>
<path d="M154.977 246.992V238.594H144.889V246.992H154.977Z" fill="#3F3D56"/>
<path d="M154.136 253.71H144.893V262.109H154.98V253.71H154.136Z" fill="#3F3D56"/>
<path d="M171.791 238.594H161.703V246.992H171.791V238.594Z" fill="#3F3D56"/>
<path d="M171.791 253.71H161.703V262.109H171.791V253.71Z" fill="#3F3D56"/>
<path d="M223.911 246.992V238.594H213.823V246.992H223.911Z" fill="#3F3D56"/>
<path d="M223.071 253.71H213.827V262.109H223.915V253.71H223.071Z" fill="#3F3D56"/>
<path d="M240.725 238.594H230.637V246.992H240.725V238.594Z" fill="#3F3D56"/>
<path d="M240.725 253.71H230.637V262.109H240.725V253.71Z" fill="#3F3D56"/>
<path d="M294.528 79.0293V70.6321H284.44V79.0293H294.528Z" fill="#3F3D56"/>
<path d="M293.688 85.7484H284.445V94.1457H294.533V85.7484H293.688Z" fill="#3F3D56"/>
<path d="M311.341 70.6321H301.253V79.0305H311.341V70.6321Z" fill="#3F3D56"/>
<path d="M311.341 85.7484H301.253V94.1468H311.341V85.7484Z" fill="#3F3D56"/>
<path d="M294.528 126.06V117.662H284.44V126.06H294.528Z" fill="#3F3D56"/>
<path d="M293.688 132.778H284.445V141.176H294.533V132.778H293.688Z" fill="#3F3D56"/>
<path d="M311.341 117.662H301.253V126.06H311.341V117.662Z" fill="#3F3D56"/>
<path d="M311.341 132.778H301.253V141.176H311.341V132.778Z" fill="#3F3D56"/>
<path d="M294.528 173.088V164.69H284.44V173.088H294.528Z" fill="#3F3D56"/>
<path d="M293.688 179.807H284.445V188.206H294.533V179.807H293.688Z" fill="#3F3D56"/>
<path d="M311.341 164.691H301.253V173.09H311.341V164.691Z" fill="#3F3D56"/>
<path d="M311.341 179.807H301.253V188.206H311.341V179.807Z" fill="#3F3D56"/>
<path d="M294.528 220.118V211.723H284.44V220.121H294.528V220.118Z" fill="#3F3D56"/>
<path d="M293.688 226.836H284.445V235.234H294.533V226.836H293.688Z" fill="#3F3D56"/>
<path d="M311.341 211.72H301.253V220.118H311.341V211.72Z" fill="#3F3D56"/>
<path d="M311.341 226.836H301.253V235.234H311.341V226.836Z" fill="#3F3D56"/>
<path d="M242.406 79.0304H144.889V99.1856H242.406V79.0304Z" fill="#3F3D56"/>
<path d="M242.406 119.341H144.889V139.496H242.406V119.341Z" fill="#3F3D56"/>
<path d="M242.406 159.651H144.889V179.806H242.406V159.651Z" fill="#3F3D56"/>
<path d="M242.406 199.963H144.889V220.118H242.406V199.963Z" fill="#3F3D56"/>
<path d="M468 283.938H0V284.759H468V283.938Z" fill="#3F3D56"/>
<path d="M80.7912 188.988H78.373V284.406H80.7912V188.988Z" fill="#3F3D56"/>
<path d="M103.107 201.148C103.261 234.514 79.7618 261.67 79.7618 261.67C79.7618 261.67 56.0142 234.73 55.8601 201.364C55.7061 167.997 79.205 140.842 79.205 140.842C79.205 140.842 102.953 167.778 103.107 201.148Z" fill="#FFA100"/>
<path opacity="0.1" d="M103.107 201.148C103.261 234.514 79.7618 261.67 79.7618 261.67C79.7618 261.67 56.0142 234.73 55.8601 201.364C55.7061 167.997 79.205 140.842 79.205 140.842C79.205 140.842 102.953 167.778 103.107 201.148Z" fill="black"/>
<path d="M49.3554 188.988H46.9373V284.406H49.3554V188.988Z" fill="#3F3D56"/>
<path d="M71.6721 201.148C71.8262 234.514 48.3273 261.67 48.3273 261.67C48.3273 261.67 24.5796 234.73 24.4256 201.364C24.2715 167.997 47.7738 140.844 47.7738 140.844C47.7738 140.844 71.5181 167.778 71.6721 201.148Z" fill="#FFA100"/>
<path d="M389.199 67.9781C370.151 68.0659 354.647 68.3474 354.647 68.3474C354.647 68.3474 373.076 43.9606 389.13 52.9962C400.175 58.9862 411.716 64.0162 423.625 68.0305C423.625 68.0305 408.248 67.8903 389.199 67.9781Z" fill="#F2F2F2"/>
<path d="M71.8479 114.854C52.7995 114.942 37.2957 115.223 37.2957 115.223C37.2957 115.223 55.7243 90.8363 71.7783 99.8719C82.824 105.862 94.3649 110.892 106.273 114.906C106.273 114.906 90.8962 114.766 71.8479 114.854Z" fill="#F2F2F2"/>
<path d="M140.998 16.9905C121.949 17.0783 106.446 17.3599 106.446 17.3599C106.446 17.3599 124.874 -7.02699 140.928 2.00865C151.974 7.99866 163.515 13.0286 175.423 17.043C175.423 17.043 160.046 16.9028 140.998 16.9905Z" fill="#F2F2F2"/>
<path d="M428.447 188.988H426.029V284.406H428.447V188.988Z" fill="#3F3D56"/>
<path d="M450.764 201.148C450.918 234.514 427.419 261.67 427.419 261.67C427.419 261.67 403.671 234.73 403.517 201.364C403.363 167.997 426.861 140.842 426.861 140.842C426.861 140.842 450.61 167.778 450.764 201.148Z" fill="#FFA100"/>
<path d="M339.441 225.18H363.845V219.295H377.31V225.18H402.555V251.24H377.309V284.026H363.843V251.24H339.441L326.818 236.944L339.441 225.18Z" fill="#3F3D56"/>
<path d="M360.341 232.662H358.703L354.069 239.424V240.236H358.633V242H360.341V240.236H361.433V238.78H360.341V232.662ZM356.225 238.78L358.633 235.224V238.78H356.225ZM365.694 242.21C367.556 242.21 369.306 240.544 369.306 237.338C369.306 234.118 367.556 232.452 365.694 232.452C363.832 232.452 362.082 234.118 362.082 237.324C362.082 240.544 363.832 242.21 365.694 242.21ZM365.694 234.02C366.478 234.02 367.486 234.902 367.486 237.324C367.486 239.76 366.492 240.642 365.694 240.642C364.896 240.642 363.902 239.76 363.902 237.324C363.902 234.902 364.91 234.02 365.694 234.02ZM376.255 232.662H374.617L369.983 239.424V240.236H374.547V242H376.255V240.236H377.347V238.78H376.255V232.662ZM372.139 238.78L374.547 235.224V238.78H372.139Z" fill="white"/>
</svg>
