<svg width="100" height="32" viewBox="0 0 100 32" fill="none" xmlns="http://www.w3.org/2000/svg">
<path d="M19.1658 17.0555L26.713 9.27617L25.2234 7.74079C23.8332 6.30776 21.4995 6.30776 20.1092 7.74079L16.2363 11.7328L12.4131 7.74079C11.0228 6.30776 8.68917 6.30776 7.2989 7.74079L5.80933 9.27617L16.1867 20.0239L16.2363 20.0751L19.1658 17.0555Z" fill="#00387E"/>
<path d="M32.4727 15.2131L30.9831 13.6777C29.5929 12.2446 27.2592 12.2446 25.8689 13.6777L16.2364 23.6577L6.60378 13.7289C5.21351 12.2958 2.87984 12.2958 1.48957 13.7289L0 15.2642L16.2364 31.9999L32.4727 15.2131Z" fill="#00387E"/>
<path d="M13.8034 1.03639C15.144 -0.345462 17.2791 -0.345462 18.6197 1.03639C19.9603 2.41823 19.9603 4.61895 18.6197 6.0008C17.2791 7.38265 15.144 7.38265 13.8034 6.0008C12.5125 4.61895 12.5125 2.36705 13.8034 1.03639Z" fill="#FFA100"/>
<path d="M46.3754 18.028H42.3535L41.3108 20.3823H39.7716L44.4886 10.0952L48.9573 20.3823H47.4181L46.3754 18.028ZM45.7796 16.6462L44.3893 13.3707L42.9494 16.6462H45.7796Z" fill="#00387E"/>
<path d="M53.9226 12.8076C53.8233 12.6029 53.724 12.3982 53.4757 12.1934C53.1778 11.9375 52.8799 11.8352 52.433 11.8352C51.5393 11.8352 51.0924 12.3982 51.0924 13.0123C51.0924 13.3194 51.1917 13.8312 52.1351 14.1894L53.0785 14.5989C54.8163 15.3154 55.3128 16.339 55.3128 17.4649C55.3128 19.3074 54.0219 20.5869 52.2841 20.5869C51.1917 20.5869 50.5462 20.1774 50.0497 19.6145C49.5532 19.0515 49.3049 18.3862 49.2552 17.7208L50.6952 17.4137C50.6952 17.8744 50.8441 18.335 51.0924 18.6421C51.3407 19.0003 51.7379 19.205 52.3337 19.205C53.2274 19.205 53.8729 18.5397 53.8729 17.5673C53.8729 16.5949 53.1281 16.1854 52.5323 15.8784L51.6386 15.4689C50.8441 15.1107 49.7021 14.4453 49.7021 13.0123C49.7021 11.6816 50.6952 10.4533 52.4827 10.4533C53.5254 10.4533 54.0715 10.8628 54.3695 11.1187C54.6177 11.3746 54.9156 11.6816 55.1142 12.0911L53.9226 12.8076ZM61.9166 10.658V20.3822H60.4767V10.658H61.9166ZM66.4846 15.8784C66.3357 15.6225 66.0874 15.3666 65.6406 15.3666C65.4419 15.3666 65.293 15.4177 65.1937 15.5201C65.144 15.5713 65.0447 15.7248 65.0447 15.8272C65.0447 15.9807 65.0944 16.0831 65.2433 16.1854C65.3426 16.2366 65.3923 16.2878 65.6902 16.4413L66.3853 16.7996C66.6833 16.9531 66.9812 17.1067 67.2294 17.3626C67.577 17.7208 67.6763 18.0791 67.6763 18.4885C67.6763 19.0515 67.4777 19.5121 67.1301 19.8704C66.6833 20.3822 66.0874 20.5357 65.4419 20.5357C65.0447 20.5357 64.5979 20.4845 64.151 20.1263C63.8034 19.8704 63.5055 19.4609 63.4062 19.0003L64.5482 18.4373C64.5979 18.6421 64.7468 18.898 64.8958 19.0003C64.9951 19.1027 65.1937 19.2562 65.4916 19.2562C65.6902 19.2562 65.9385 19.205 66.0378 19.0515C66.1371 18.9491 66.2364 18.7444 66.2364 18.5909C66.2364 18.4373 66.1867 18.2838 66.0378 18.1303C65.8888 17.9767 65.6902 17.8744 65.4419 17.772L64.9454 17.5161C64.6972 17.3626 64.3496 17.209 64.1013 17.0043C63.8034 16.6972 63.6545 16.339 63.6545 15.9807C63.6545 15.4689 63.8531 15.0083 64.151 14.6501C64.3992 14.343 64.8958 14.0871 65.5909 14.0871C66.0378 14.0871 66.3357 14.1894 66.6833 14.3942C66.8819 14.5477 67.1301 14.7524 67.3784 15.1618L66.4846 15.8784ZM70.4568 15.5713V20.3822H69.0666V15.5713H68.4707V14.2406H69.0666V11.9887H70.4568V14.2406H71.4995V15.5713H70.4568ZM77.7558 19.0003C77.5075 19.4609 77.1103 19.8704 76.7627 20.1263C76.2662 20.4333 75.6207 20.5869 75.0249 20.5869C74.2304 20.5869 73.585 20.3822 73.0388 19.8192C72.4926 19.2562 72.145 18.3862 72.145 17.4649C72.145 16.4925 72.4926 15.5713 73.0884 14.9571C73.5849 14.4453 74.2304 14.1383 75.0745 14.1383C76.0179 14.1383 76.6138 14.5477 77.011 14.9571C77.7558 15.776 77.8551 16.902 77.8551 17.5673V17.7208H73.5849C73.6346 18.1814 73.7836 18.6421 74.0815 18.9491C74.429 19.3074 74.8263 19.3586 75.1242 19.3586C75.5214 19.3586 75.7697 19.2562 76.0676 19.0515C76.3158 18.8468 76.5144 18.5909 76.6138 18.3862L77.7558 19.0003ZM76.4151 16.4925C76.3655 16.1343 76.2165 15.8784 75.9683 15.6736C75.7697 15.5201 75.4717 15.3154 75.0249 15.3154C74.5283 15.3154 74.2304 15.5201 74.0318 15.7248C73.8332 15.9295 73.6843 16.1854 73.5849 16.4925H76.4151ZM79.2453 9.73682H80.6356V14.7524C81.2314 14.1383 81.8769 14.0871 82.2245 14.0871C83.3168 14.0871 83.8134 14.6501 83.9623 14.9059C84.3099 15.4689 84.3595 16.1854 84.3595 16.5949V20.3822H82.9693V16.7484C82.9693 16.3902 82.9693 15.9807 82.721 15.6736C82.572 15.5201 82.2741 15.3666 81.9266 15.3666C81.4797 15.3666 81.0825 15.6225 80.8839 15.8784C80.6852 16.1854 80.5859 16.6461 80.5859 17.4137V20.3822H79.1957V9.73682H79.2453Z" fill="#00387E"/>
<path d="M88.5799 15.8784C88.431 15.6225 88.1827 15.3666 87.7358 15.3666C87.5372 15.3666 87.3883 15.4177 87.289 15.5201C87.2393 15.5713 87.14 15.7248 87.14 15.8272C87.14 15.9807 87.1896 16.0831 87.3386 16.1854C87.4379 16.2366 87.4876 16.2878 87.7855 16.4413L88.4806 16.7996C88.7785 16.9531 89.0764 17.1067 89.3247 17.3626C89.6723 17.7208 89.7716 18.0791 89.7716 18.4885C89.7716 19.0515 89.573 19.5121 89.2254 19.8704C88.7785 20.3822 88.1827 20.5357 87.5372 20.5357C87.14 20.5357 86.6931 20.4845 86.2463 20.1263C85.8987 19.8704 85.6008 19.4609 85.5015 19.0003L86.6435 18.4373C86.6931 18.6421 86.8421 18.898 86.991 19.0003C87.0903 19.1027 87.289 19.2562 87.5869 19.2562C87.7855 19.2562 88.0337 19.205 88.133 19.0515C88.2324 18.9491 88.3317 18.7444 88.3317 18.5909C88.3317 18.4373 88.282 18.2838 88.133 18.1303C87.9841 17.9767 87.7855 17.8744 87.5372 17.772L87.0407 17.5161C86.7924 17.3626 86.4449 17.209 86.1966 17.0043C85.8987 16.6972 85.7497 16.339 85.7497 15.9807C85.7497 15.4689 85.9483 15.0083 86.2463 14.6501C86.4945 14.343 86.991 14.0871 87.6862 14.0871C88.133 14.0871 88.431 14.1894 88.7785 14.3942C88.9771 14.5477 89.2254 14.7524 89.4737 15.1618L88.5799 15.8784ZM95.432 14.2406H96.8222V20.3822H95.432V19.7168C94.8361 20.4333 94.0913 20.5357 93.6445 20.5357C91.8073 20.5357 90.7646 18.9491 90.7646 17.2602C90.7646 15.2642 92.1052 14.0359 93.6445 14.0359C94.0913 14.0359 94.8361 14.1383 95.432 14.9059V14.2406ZM92.2045 17.3114C92.2045 18.3862 92.85 19.2562 93.8431 19.2562C94.7368 19.2562 95.5313 18.5909 95.5313 17.3114C95.5313 15.9807 94.7368 15.3154 93.8431 15.3154C92.85 15.3666 92.2045 16.2366 92.2045 17.3114ZM100 9.73682V20.3822H98.6097V9.73682H100Z" fill="#00387E"/>
</svg>
