<svg width="200" height="64" viewBox="0 0 200 64" fill="none" xmlns="http://www.w3.org/2000/svg">
<path d="M38.3615 34.0627L53.4453 18.5184L50.4658 15.448C47.6725 12.5694 43.017 12.5694 40.2237 15.448L32.4025 23.508L24.7675 15.448C21.9742 12.5694 17.3187 12.5694 14.5254 15.448L11.5459 18.5184L32.2163 40.0117L32.4025 40.2036L38.3615 34.0627Z" fill="white"/>
<path d="M64.9907 30.4169L62.0111 27.3464C59.2178 24.4679 54.5623 24.4679 51.7691 27.3464L32.4022 47.3044L13.2216 27.5383C10.4283 24.6598 5.77277 24.6598 2.97947 27.5383L0 30.6088L32.4022 64.0001L64.9907 30.4169Z" fill="white"/>
<path d="M27.7468 2.01499C30.3539 -0.671664 34.637 -0.671664 37.244 2.01499C39.8511 4.70165 39.8511 9.11544 37.244 11.8021C34.637 14.4888 30.3539 14.4888 27.7468 11.8021C25.1397 9.30735 25.1397 4.70165 27.7468 2.01499Z" fill="#FFA100"/>
<path d="M92.7377 35.9817H84.7303L82.6819 40.5874H79.5161L88.8271 20.0537L97.7657 40.5874H94.5999L92.7377 35.9817ZM91.6204 33.2951L88.8271 26.7704L85.8476 33.2951H91.6204Z" fill="white"/>
<path d="M107.821 25.6194C107.635 25.2356 107.449 24.8518 106.89 24.468C106.332 23.8923 105.587 23.7004 104.842 23.7004C103.166 23.7004 102.235 24.8518 102.235 26.0033C102.235 26.579 102.421 27.5385 104.283 28.3061L106.145 29.0737C109.684 30.6089 110.615 32.528 110.615 34.8308C110.615 38.477 108.008 41.1637 104.469 41.1637C102.235 41.1637 100.931 40.3961 100 39.2446C99.0691 38.0932 98.5104 36.7499 98.3242 35.4066L101.118 34.8308C101.118 35.7904 101.49 36.7499 101.862 37.3256C102.421 38.0932 103.166 38.477 104.283 38.477C105.959 38.477 107.449 37.1337 107.449 35.2146C107.449 33.2956 105.959 32.3361 104.656 31.9523L102.793 31.1847C101.304 30.609 98.8829 29.2656 98.8829 26.1952C98.8829 23.5085 100.931 21.0137 104.469 21.0137C106.518 21.0137 107.635 21.7814 108.194 22.3571C108.752 22.7409 109.311 23.5085 109.684 24.2761L107.821 25.6194ZM123.836 21.3976V40.7799H120.857V21.3976H123.836ZM132.961 31.7604C132.589 31.3766 132.216 30.8009 131.285 30.8009C130.913 30.8009 130.54 30.9928 130.354 31.1847C130.168 31.3766 130.168 31.5685 130.168 31.7604C130.168 32.1442 130.354 32.3361 130.54 32.528C130.726 32.7199 130.913 32.7199 131.471 33.1037L132.961 33.8713C133.52 34.2551 134.265 34.447 134.637 35.0227C135.196 35.5985 135.568 36.3661 135.568 37.3256C135.568 38.477 135.196 39.4365 134.451 40.2042C133.52 41.1637 132.402 41.5475 131.099 41.5475C130.354 41.5475 129.423 41.3556 128.492 40.7799C127.747 40.2042 127.188 39.4365 127.002 38.477L129.237 37.3256C129.423 37.7094 129.609 38.2851 129.795 38.477C129.982 38.6689 130.354 38.8608 131.099 38.8608C131.471 38.8608 132.03 38.6689 132.216 38.477C132.402 38.2851 132.589 37.9013 132.589 37.5175C132.589 37.1337 132.402 36.9418 132.216 36.558C131.844 36.1742 131.471 35.9823 131.099 35.7904L130.168 35.2146C129.609 35.0227 129.05 34.6389 128.492 34.2551C127.933 33.6794 127.561 32.9118 127.561 32.1442C127.561 31.1847 127.933 30.2251 128.492 29.4575C129.05 28.8818 129.982 28.3061 131.471 28.3061C132.402 28.3061 132.961 28.498 133.706 28.8818C134.078 29.0737 134.637 29.6494 135.01 30.417L132.961 31.7604ZM140.782 31.1847V40.7799H137.989V31.1847H136.872V28.498H137.989V24.0842H140.782V28.498H142.831V31.1847H140.782ZM155.494 37.9013C154.935 38.8608 154.19 39.6284 153.445 40.2042C152.514 40.7799 151.211 41.1637 149.907 41.1637C148.231 41.1637 146.928 40.7799 145.81 39.6284C144.693 38.477 144.134 36.7499 144.134 35.0227C144.134 33.1037 144.693 31.3766 145.996 30.0332C146.928 29.0737 148.231 28.3061 149.907 28.3061C151.769 28.3061 153.073 29.0737 153.818 29.8413C155.307 31.5685 155.494 33.6794 155.494 35.0227V35.4066H146.928C146.928 36.3661 147.3 37.3256 147.859 37.9013C148.417 38.477 149.348 38.6689 149.907 38.6689C150.652 38.6689 151.211 38.477 151.769 38.0932C152.328 37.7094 152.7 37.1337 152.887 36.7499L155.494 37.9013ZM152.7 32.9118C152.514 32.3361 152.328 31.5685 151.769 31.1847C151.397 30.8009 150.838 30.417 149.907 30.417C148.976 30.417 148.231 30.8009 148.045 31.1847C147.672 31.5685 147.3 32.1442 147.114 32.7199H152.7V32.9118ZM158.473 19.4785H161.266V29.4575C162.384 28.1142 163.687 28.1142 164.432 28.1142C166.667 28.1142 167.598 29.2656 167.97 29.8413C168.715 30.9928 168.715 32.3361 168.715 33.2956V40.7799H165.922V33.4875C165.922 32.7199 165.922 31.9523 165.363 31.3766C164.991 30.9928 164.432 30.8009 163.874 30.8009C162.942 30.8009 162.198 31.1847 161.825 31.7604C161.453 32.3361 161.266 33.2956 161.266 34.8308V40.7799H158.473V19.4785Z" fill="white"/>
<path d="M177.095 31.7604C176.723 31.3766 176.35 30.8009 175.419 30.8009C175.047 30.8009 174.674 30.9928 174.488 31.1847C174.302 31.3766 174.302 31.5685 174.302 31.7604C174.302 32.1442 174.488 32.3361 174.674 32.528C174.86 32.7199 175.047 32.7199 175.605 33.1037L177.095 33.8713C177.654 34.2551 178.399 34.447 178.771 35.0227C179.33 35.5985 179.702 36.3661 179.702 37.3256C179.702 38.477 179.33 39.4365 178.585 40.2042C177.654 41.1637 176.536 41.5475 175.233 41.5475C174.488 41.5475 173.557 41.3556 172.626 40.7799C171.881 40.2042 171.322 39.4365 171.136 38.477L173.371 37.3256C173.557 37.7094 173.743 38.2851 173.929 38.477C174.116 38.6689 174.488 38.8608 175.233 38.8608C175.605 38.8608 176.164 38.6689 176.35 38.477C176.536 38.2851 176.723 37.9013 176.723 37.5175C176.723 37.1337 176.536 36.9418 176.35 36.558C175.978 36.1742 175.605 35.9823 175.233 35.7904L174.302 35.2146C173.743 35.0227 173.184 34.6389 172.626 34.2551C172.067 33.6794 171.695 32.9118 171.695 32.1442C171.695 31.1847 172.067 30.2251 172.626 29.4575C173.184 28.8818 174.115 28.3061 175.605 28.3061C176.536 28.3061 177.095 28.498 177.84 28.8818C178.212 29.0737 178.771 29.6494 179.143 30.417L177.095 31.7604ZM190.875 28.498H193.669V40.7799H190.875V39.4365C189.572 40.9718 188.082 41.1637 187.337 41.1637C183.613 41.1637 181.564 38.0932 181.564 34.6389C181.564 30.6089 184.171 28.1142 187.337 28.1142C188.268 28.1142 189.758 28.3061 190.875 29.8413V28.498ZM184.358 34.6389C184.358 36.7499 185.661 38.477 187.71 38.477C189.386 38.477 191.061 37.1337 191.061 34.6389C191.061 31.9523 189.386 30.609 187.71 30.609C185.661 30.8009 184.358 32.528 184.358 34.6389ZM200 19.4785V40.7799H197.207V19.4785H200Z" fill="white"/>
</svg>
