<svg width="81" height="81" viewBox="0 0 81 81" fill="none" xmlns="http://www.w3.org/2000/svg">
<path d="M68.3251 11.7551C62.7309 6.16116 55.6035 2.35174 47.8444 0.808495C40.0852 -0.734747 32.0426 0.057507 24.7337 3.08507C17.4248 6.11264 11.1777 11.2395 6.78258 17.8175C2.38741 24.3954 0.0415039 32.1289 0.0415039 40.0401C0.0415039 47.9512 2.38741 55.6847 6.78258 62.2627C11.1777 68.8406 17.4248 73.9675 24.7337 76.995C32.0426 80.0226 40.0852 80.8149 47.8444 79.2716C55.6035 77.7284 62.7309 73.919 68.3251 68.3251C72.0396 64.6107 74.9862 60.201 76.9965 55.3479C79.0068 50.4947 80.0415 45.2931 80.0415 40.0401C80.0415 34.787 79.0068 29.5854 76.9965 24.7322C74.9862 19.8791 72.0396 15.4694 68.3251 11.7551ZM57.518 42.4891L45.018 49.6661L32.779 56.7581C32.3164 57.0993 31.7538 57.2776 31.179 57.2651C30.8011 57.2683 30.4264 57.1962 30.0766 57.053C29.7268 56.9099 29.409 56.6985 29.1418 56.4313C28.8746 56.1641 28.6632 55.8463 28.5201 55.4965C28.3769 55.1467 28.3048 54.772 28.308 54.3941V25.6021C28.2989 25.103 28.4151 24.6096 28.646 24.1671C28.8297 23.8406 29.0773 23.5544 29.374 23.3257C29.6707 23.0969 30.0104 22.9303 30.3729 22.8358C30.7354 22.7413 31.1133 22.7207 31.4839 22.7754C31.8545 22.8301 32.2103 22.9589 32.53 23.1541L44.857 30.2461C44.941 30.2461 44.941 30.3301 45.026 30.3301L57.526 37.5071C57.9513 37.775 58.324 38.1183 58.626 38.5201C58.9917 39.1962 59.0805 39.988 58.8738 40.7284C58.6672 41.4688 58.1811 42.1 57.518 42.4891Z" fill="white"/>
</svg>
