<svg width="17" height="17" viewBox="0 0 17 17" fill="none" xmlns="http://www.w3.org/2000/svg">
<path d="M7 14C5.61553 14 4.26216 13.5895 3.11101 12.8203C1.95987 12.0511 1.06266 10.9579 0.532846 9.67879C0.00303304 8.3997 -0.13559 6.99224 0.134506 5.63437C0.404603 4.2765 1.07129 3.02922 2.05026 2.05026C3.02922 1.07129 4.2765 0.404603 5.63437 0.134506C6.99224 -0.13559 8.3997 0.00303304 9.67879 0.532846C10.9579 1.06266 12.0511 1.95987 12.8203 3.11101C13.5895 4.26216 14 5.61553 14 7C13.9979 8.85587 13.2597 10.6351 11.9474 11.9474C10.6351 13.2597 8.85587 13.9979 7 14ZM7 1.326C5.8779 1.32541 4.78083 1.6576 3.84754 2.28055C2.91425 2.9035 2.18666 3.78924 1.75679 4.82573C1.32693 5.86222 1.2141 7.00292 1.43257 8.10354C1.65104 9.20417 2.19101 10.2153 2.98417 11.009C3.77734 11.8027 4.78807 12.3434 5.88854 12.5627C6.98901 12.7819 8.12978 12.6699 9.16658 12.2407C10.2034 11.8116 11.0896 11.0846 11.7132 10.1518C12.3368 9.21894 12.6698 8.1221 12.67 7C12.6682 5.49652 12.0703 4.0551 11.0074 2.99169C9.94459 1.92828 8.50349 1.32965 7 1.327V1.326ZM16.792 16.805C16.9162 16.6805 16.986 16.5119 16.986 16.336C16.986 16.1602 16.9162 15.9915 16.792 15.867L13.819 12.9C13.6928 12.7851 13.5271 12.7232 13.3565 12.7273C13.1858 12.7313 13.0233 12.8008 12.9026 12.9216C12.7818 13.0423 12.7123 13.2048 12.7083 13.3755C12.7042 13.5461 12.7661 13.7118 12.881 13.838L15.85 16.807C15.9745 16.9312 16.1432 17.001 16.319 17.001C16.4949 17.001 16.6635 16.9312 16.788 16.807L16.792 16.805Z" fill="#FFA100"/>
</svg>
