<svg width="15" height="21" viewBox="0 0 15 21" fill="none" xmlns="http://www.w3.org/2000/svg">
<path d="M7.50036 0C6.16475 -2.77825e-06 4.85336 0.351099 3.70171 1.01703C2.55007 1.68295 1.59993 2.63954 0.9495 3.78795C0.299065 4.93636 -0.0280706 6.23492 0.00188747 7.54945C0.0318455 8.86399 0.417815 10.1468 1.11991 11.2653L7.07255 20.7095C7.12862 20.7984 7.20681 20.8717 7.29972 20.9226C7.39262 20.9734 7.49717 21.0001 7.60346 21V21C7.71054 20.9992 7.81561 20.9713 7.90858 20.919C8.00156 20.8667 8.07931 20.7917 8.13437 20.7013L13.9412 11.1662C14.6203 10.0454 14.9854 8.76752 14.9996 7.46263C15.0137 6.15774 14.6763 4.87247 14.0218 3.73771C13.3672 2.60294 12.4189 1.65922 11.2733 1.00265C10.1278 0.346084 8.82592 0.000122375 7.50036 0V0ZM12.8688 10.5338L7.59516 19.2033L2.18293 10.6167C1.599 9.68763 1.27671 8.62235 1.24914 7.53019C1.22157 6.43802 1.48971 5.3583 2.02604 4.40185C2.56237 3.44541 3.34757 2.64669 4.30104 2.08769C5.25451 1.52869 6.34191 1.22953 7.45162 1.22093C8.56133 1.21233 9.65338 1.49459 10.6157 2.03875C11.578 2.5829 12.3758 3.36935 12.9274 4.31736C13.479 5.26537 13.7643 6.3408 13.7542 7.43326C13.7441 8.52572 13.4389 9.59586 12.8699 10.5338H12.8688Z" fill="#717171"/>
<path d="M7.5 4C6.80777 4 6.13108 4.20528 5.55551 4.58986C4.97993 4.97444 4.53133 5.52106 4.26643 6.1606C4.00152 6.80014 3.9322 7.50388 4.06725 8.18281C4.2023 8.86175 4.53564 9.48539 5.02513 9.97487C5.51461 10.4644 6.13826 10.7977 6.81719 10.9327C7.49612 11.0678 8.19986 10.9985 8.8394 10.7336C9.47894 10.4687 10.0256 10.0201 10.4101 9.44449C10.7947 8.86892 11 8.19223 11 7.5C10.9988 6.5721 10.6297 5.68255 9.97358 5.02642C9.31745 4.3703 8.4279 4.00117 7.5 4ZM7.5 9.8407C7.03691 9.84136 6.58403 9.70464 6.19867 9.44784C5.81331 9.19104 5.51279 8.8257 5.33511 8.39805C5.15744 7.9704 5.11061 7.49966 5.20055 7.04539C5.29049 6.59111 5.51315 6.17373 5.84037 5.84604C6.1676 5.51836 6.58467 5.2951 7.03881 5.20452C7.49296 5.11393 7.96376 5.16009 8.39166 5.33715C8.81956 5.51422 9.18533 5.81423 9.44268 6.19923C9.70002 6.58423 9.83738 7.03691 9.83738 7.5C9.8368 8.12004 9.59046 8.71456 9.15234 9.15331C8.71421 9.59205 8.12004 9.83924 7.5 9.8407Z" fill="#717171"/>
</svg>
